<?xml version="1.0" encoding="UTF-8" standalone="no"?>
<!-- Created with Inkscape (http://www.inkscape.org/) -->

<svg
   xmlns:dc="http://purl.org/dc/elements/1.1/"
   xmlns:cc="http://creativecommons.org/ns#"
   xmlns:rdf="http://www.w3.org/1999/02/22-rdf-syntax-ns#"
   xmlns:svg="http://www.w3.org/2000/svg"
   xmlns="http://www.w3.org/2000/svg"
   xmlns:sodipodi="http://sodipodi.sourceforge.net/DTD/sodipodi-0.dtd"
   xmlns:inkscape="http://www.inkscape.org/namespaces/inkscape"
   width="172.07899mm"
   height="40.552498mm"
   viewBox="0 0 609.72872 143.68995"
   id="svg2"
   version="1.1"
   inkscape:version="0.91 r13725"
   sodipodi:docname="logo_v3.svg">
  <defs
     id="defs4" />
  <sodipodi:namedview
     id="base"
     pagecolor="#ffffff"
     bordercolor="#666666"
     borderopacity="1.0"
     inkscape:pageopacity="0.0"
     inkscape:pageshadow="2"
     inkscape:zoom="1.4"
     inkscape:cx="251.48426"
     inkscape:cy="-19.613702"
     inkscape:document-units="px"
     inkscape:current-layer="layer1"
     showgrid="false"
     inkscape:window-width="1600"
     inkscape:window-height="838"
     inkscape:window-x="-8"
     inkscape:window-y="-8"
     inkscape:window-maximized="1"
     fit-margin-top="5"
     fit-margin-bottom="5"
     fit-margin-left="10"
     fit-margin-right="10" />
  <metadata
     id="metadata7">
    <rdf:RDF>
      <cc:Work
         rdf:about="">
        <dc:format>image/svg+xml</dc:format>
        <dc:type
           rdf:resource="http://purl.org/dc/dcmitype/StillImage" />
        <dc:title></dc:title>
      </cc:Work>
    </rdf:RDF>
  </metadata>
  <g
     inkscape:label="Layer 1"
     inkscape:groupmode="layer"
     id="layer1"
     transform="translate(-40.849941,-151.94578)">
    <g
       style="font-style:normal;font-variant:normal;font-weight:normal;font-stretch:normal;font-size:127.5px;line-height:125%;font-family:roboto;-inkscape-font-specification:roboto;letter-spacing:0px;word-spacing:0px;fill:#000000;fill-opacity:1;stroke:none;stroke-width:1px;stroke-linecap:butt;stroke-linejoin:miter;stroke-opacity:1"
       id="text5053">
      <path
         d="m 87.177788,194.49435 0.311279,7.47071 q 3.486328,-4.10889 8.404541,-6.41236 4.980472,-2.30346 11.579592,-2.30346 6.53686,0 11.51733,2.61474 5.04273,2.55249 7.71973,8.21778 3.36181,-4.85596 8.71582,-7.84424 5.41626,-2.98828 12.76245,-2.98828 5.41626,0 9.5874,1.43188 4.17114,1.36963 7.03491,4.35791 2.92603,2.98828 4.42017,7.59522 1.49414,4.60693 1.49414,10.95703 l 0,44.26391 -11.51733,0 0,-44.32617 q 0,-4.2334 -1.05835,-7.03491 -0.9961,-2.80151 -2.86377,-4.48242 -1.86768,-1.68091 -4.54468,-2.30347 -2.677,-0.68481 -5.91431,-0.68481 -3.54858,0 -6.28784,1.1206 -2.73926,1.12061 -4.73144,3.05054 -1.92994,1.86768 -3.1128,4.48242 -1.1206,2.55249 -1.43188,5.47852 l 0,44.6997 -11.57959,0 0,-44.26391 q 0,-3.92212 -1.05835,-6.66138 -0.99609,-2.80151 -2.86377,-4.54468 -1.86768,-1.74316 -4.54468,-2.55249 -2.61474,-0.80932 -5.9143,-0.80932 -6.163335,0 -9.898686,2.677 -3.735352,2.677 -5.603028,6.97266 l 0,49.18212 -11.517334,0 0,-67.36084 10.894776,0 z"
         id="path4155"
         inkscape:connector-curvature="0" />
      <path
         d="m 200.67022,261.85519 -11.51733,0 0,-67.36084 11.51733,0 0,67.36084 z m -12.45117,-85.22827 q 0,-2.80151 1.68091,-4.73144 1.74316,-1.92993 5.10498,-1.92993 3.36181,0 5.10498,1.92993 1.74316,1.92993 1.74316,4.73144 0,2.80152 -1.74316,4.66919 -1.74317,1.86768 -5.10498,1.86768 -3.36182,0 -5.10498,-1.86768 -1.68091,-1.86767 -1.68091,-4.66919 z"
         id="path4157"
         inkscape:connector-curvature="0" />
      <path
         d="m 246.05474,253.69968 q 3.05054,0 5.85205,-0.9961 2.80152,-0.99609 4.91821,-2.73926 2.17896,-1.74316 3.48633,-4.10888 1.36963,-2.42798 1.61866,-5.22949 l 10.89477,0 q -0.24902,4.48242 -2.49023,8.5913 -2.17896,4.04664 -5.7898,7.15943 -3.61084,3.05054 -8.40454,4.91821 -4.73145,1.80542 -10.08545,1.80542 -7.59521,0 -13.2605,-2.677 -5.60302,-2.73926 -9.33838,-7.34619 -3.73535,-4.60694 -5.60302,-10.70801 -1.80542,-6.10107 -1.80542,-12.88696 l 0,-2.61475 q 0,-6.78589 1.80542,-12.88696 1.86767,-6.10108 5.60302,-10.70801 3.73536,-4.60693 9.33838,-7.28394 5.60303,-2.73925 13.19825,-2.73925 5.9143,0 10.708,1.86767 4.85596,1.86768 8.34229,5.16724 3.54858,3.2373 5.54077,7.71973 1.99219,4.48242 2.24121,9.64965 l -10.89477,0 q -0.24903,-3.11279 -1.49415,-5.78979 -1.18286,-2.73926 -3.2373,-4.73145 -2.05444,-2.05444 -4.91821,-3.2373 -2.80152,-1.18286 -6.28784,-1.18286 -5.35401,0 -8.90259,2.1167 -3.48633,2.1167 -5.66529,5.60302 -2.1167,3.42408 -2.98828,7.78199 -0.87158,4.29565 -0.87158,8.65356 l 0,2.61475 q 0,4.48242 0.87158,8.84033 0.87158,4.29565 2.98828,7.71973 2.1167,3.42407 5.66529,5.54077 3.54858,2.1167 8.96484,2.1167 z"
         id="path4159"
         inkscape:connector-curvature="0" />
      <path
         d="m 318.33379,204.82883 q -1.49414,-0.24903 -2.80151,-0.31128 -1.24512,-0.12451 -2.86377,-0.12451 -5.97656,0 -9.77417,2.61474 -3.73535,2.61475 -5.60303,7.03491 l 0,47.8125 -11.51733,0 0,-67.36084 11.20605,0 0.18677,7.78199 q 2.61475,-4.17115 6.53687,-6.59912 3.92212,-2.42798 9.52514,-2.42798 1.24512,0 2.86377,0.31128 1.61866,0.24902 2.24121,0.5603 l 0,10.70801 z"
         id="path4161"
         inkscape:connector-curvature="0" />
      <path
         d="m 324.8084,227.55222 q 0,-7.3462 2.1167,-13.57178 2.17896,-6.28784 6.10108,-10.89478 3.98437,-4.60693 9.64965,-7.22168 5.66529,-2.61474 12.7002,-2.61474 7.15942,0 12.82471,2.61474 5.72754,2.61475 9.71191,7.22168 3.98438,4.60694 6.10108,10.89478 2.11669,6.22558 2.11669,13.57178 l 0,1.36962 q 0,7.3462 -2.11669,13.63404 -2.1167,6.22558 -6.10108,10.83252 -3.98437,4.54467 -9.64966,7.15942 -5.66528,2.55249 -12.76245,2.55249 -7.09717,0 -12.76245,-2.55249 -5.66528,-2.61475 -9.64966,-7.15942 -3.98437,-4.60694 -6.16333,-10.83252 -2.1167,-6.28784 -2.1167,-13.63404 l 0,-1.36962 z m 11.57959,1.36962 q 0,5.04273 1.18286,9.52515 1.18287,4.48242 3.54859,7.9065 2.42798,3.36181 5.97656,5.354 3.61084,1.99219 8.40454,1.99219 4.73145,0 8.34229,-1.99219 3.61084,-1.99219 5.97656,-5.354 2.36572,-3.42408 3.54858,-7.9065 1.24512,-4.48242 1.24512,-9.52515 l 0,-1.36962 q 0,-4.98047 -1.24512,-9.4629 -1.18286,-4.54467 -3.61084,-7.90649 -2.36572,-3.42407 -5.97656,-5.41626 -3.61084,-2.05444 -8.40454,-2.05444 -4.73145,0 -8.28003,2.05444 -3.54858,1.99219 -5.97656,5.41626 -2.36572,3.36182 -3.54859,7.90649 -1.18286,4.48243 -1.18286,9.4629 l 0,1.36962 z"
         id="path4163"
         inkscape:connector-curvature="0" />
    </g>
    <g
       style="font-style:normal;font-variant:normal;font-weight:normal;font-stretch:normal;font-size:127.5px;line-height:125%;font-family:roboto;-inkscape-font-specification:roboto;letter-spacing:0px;word-spacing:0px;fill:#000000;fill-opacity:1;stroke:none;stroke-width:1px;stroke-linecap:butt;stroke-linejoin:miter;stroke-opacity:1"
       id="text5057">
      <path
         d="m 561.73004,253.39645 q 3.05054,0 5.85205,-0.99609 2.80152,-0.99609 4.91822,-2.73926 2.17895,-1.74316 3.48632,-4.10888 1.36963,-2.42798 1.61866,-5.2295 l 10.89477,0 q -0.24902,4.48243 -2.49023,8.59131 -2.17896,4.04663 -5.7898,7.15943 -3.61084,3.05053 -8.40454,4.91821 -4.73144,1.80542 -10.08545,1.80542 -7.59521,0 -13.2605,-2.677 -5.60302,-2.73926 -9.33838,-7.34619 -3.73535,-4.60694 -5.60302,-10.70801 -1.80542,-6.10108 -1.80542,-12.88697 l 0,-2.61474 q 0,-6.78589 1.80542,-12.88696 1.86767,-6.10108 5.60302,-10.70801 3.73536,-4.60694 9.33838,-7.28394 5.60303,-2.73926 13.19825,-2.73926 5.9143,0 10.708,1.86768 4.85596,1.86768 8.34229,5.16724 3.54858,3.2373 5.54077,7.71972 1.99219,4.48242 2.24121,9.64966 l -10.89477,0 q -0.24903,-3.11279 -1.49414,-5.78979 -1.18287,-2.73926 -3.23731,-4.73145 -2.05444,-2.05444 -4.91821,-3.2373 -2.80152,-1.18286 -6.28784,-1.18286 -5.35401,0 -8.90259,2.11669 -3.48633,2.1167 -5.66529,5.60303 -2.11669,3.42407 -2.98828,7.78198 -0.87158,4.29566 -0.87158,8.65357 l 0,2.61474 q 0,4.48243 0.87158,8.84034 0.87159,4.29565 2.98828,7.71972 2.1167,3.42408 5.66529,5.54077 3.54858,2.1167 8.96484,2.1167 z"
         id="path4166"
         inkscape:connector-curvature="0" />
      <path
         d="m 613.96271,261.55197 -11.51734,0 0,-67.36084 11.51734,0 0,67.36084 z M 601.51154,176.3237 q 0,-2.80151 1.6809,-4.73145 1.74317,-1.92993 5.10498,-1.92993 3.36182,0 5.10498,1.92993 1.74317,1.92994 1.74317,4.73145 0,2.80151 -1.74317,4.66919 -1.74316,1.86768 -5.10498,1.86768 -3.36181,0 -5.10498,-1.86768 -1.6809,-1.86768 -1.6809,-4.66919 z"
         id="path4168"
         inkscape:connector-curvature="0" />
    </g>
    <g
       inkscape:export-ydpi="301.48135"
       inkscape:export-xdpi="301.48135"
       transform="matrix(0.99981885,0.01903311,-0.01903311,0.99981885,-2181.6408,-1142.0363)"
       id="g5061">
      <path
         style="opacity:1;fill:#000000;fill-opacity:1;stroke:none;stroke-width:1.14900005;stroke-linecap:round;stroke-linejoin:round;stroke-miterlimit:4;stroke-dasharray:none;stroke-dashoffset:0;stroke-opacity:1"
         d="m 2664.2323,1269.5584 c -8.4817,0.2673 -15.1408,7.36 -14.8735,15.8416 0.2674,8.4817 7.36,15.139 15.8416,14.8716 5.1879,-0.1635 9.9428,-2.935 12.6414,-7.3687 l 0.073,0.027 c 3.4177,1.4459 6.548,3.4937 9.2419,6.0458 l 1.4415,-1.5734 c 0.7348,0 1.4775,0.012 2.2276,0.061 1.9871,1.9884 3.7455,4.2057 5.226,6.5964 -0.1262,0.7411 -0.2745,1.4692 -0.4452,2.1831 l -2.0756,1.1637 c 1.3931,2.7259 2.3746,5.6431 2.9129,8.6566 l 2.6535,-0.5605 c 0.5953,0.428 1.1834,0.8847 1.7609,1.3711 0.3291,2.073 0.4616,4.1929 0.3815,6.3368 -0.05,0.7635 -0.1266,1.5211 -0.2293,2.272 -0.5709,0.5085 -1.1507,0.9843 -1.739,1.4305 l -2.74,-0.5057 c -0.4835,3.013 -1.4093,5.9382 -2.7474,8.6807 l 2.1335,1.1658 c 0.1768,0.7114 0.3304,1.4379 0.4615,2.178 -1.4601,2.4065 -3.2036,4.6362 -5.1783,6.6371 -0.7493,0.046 -1.4927,0.07 -2.2274,0.07 l -1.3636,-1.4753 c -1.1852,0.9765 -1.8437,2.448 -1.7954,3.9823 0.087,2.76 2.3951,4.927 5.1551,4.84 1.3513,-0.043 2.6266,-0.6291 3.5526,-1.6107 8.2618,-8.0134 12.7529,-19.1408 12.3902,-30.6459 -0.5283,-16.7607 -11.2091,-31.5114 -26.9601,-37.2413 -0.9852,-7.8633 -7.798,-13.6791 -15.72,-13.4294 z m 0.086,2.7271 a 12.634871,12.634871 0 0 1 13.0266,12.2305 12.634871,12.634871 0 0 1 -12.2304,13.0285 12.634871,12.634871 0 0 1 -13.0266,-12.2324 12.634871,12.634871 0 0 1 12.2304,-13.0266 z"
         id="path5063"
         inkscape:connector-curvature="0" />
      <path
         style="fill:#000000;fill-opacity:1;fill-rule:evenodd;stroke:none;stroke-width:1;stroke-linecap:butt;stroke-linejoin:round;stroke-miterlimit:4;stroke-dasharray:none;stroke-opacity:1"
         d="m 2643.3655,1289.9973 c -1.1278,0.043 -2.2078,0.4657 -3.0702,1.1971 -8.6913,8.119 -13.4238,19.6127 -12.9739,31.4959 0.7025,18.5511 13.7814,34.3144 31.8896,38.444 l 8.8746,8.2873 4.2783,-0.162 12.3635,-13.3367 -0.1568,-4.1397 -13.4825,-12.4988 -3.9972,0.1514 -9.8808,10.6647 c -1.7501,-0.6728 -3.6528,-1.6429 -5.2383,-2.6357 l -0.8567,1.4279 c -0.7192,0.1498 -1.4507,0.276 -2.1943,0.3802 -2.3408,-1.5568 -4.5037,-3.3818 -6.4232,-5.4405 -0.019,-0.7513 -0.019,-1.4941 0.01,-2.2266 l 1.4864,-1.2661 c -1.9237,-2.4362 -3.4705,-5.1474 -4.5888,-8.043 l -2.0826,0.8509 c -0.667,-0.3171 -1.3337,-0.6668 -1.9962,-1.0483 -0.2533,-0.7143 -0.4819,-1.4393 -0.6864,-2.1767 -0.5151,-2.0826 -0.8156,-4.1858 -0.916,-6.2824 0.4662,-0.5937 0.9489,-1.1603 1.4444,-1.7004 l 2.1502,0.01 c -0.081,-3.1147 0.3093,-6.2237 1.1558,-9.2222 l -1.7744,-0.5602 c -0.3126,-0.6641 -0.6064,-1.3463 -0.8808,-2.0462 0.9624,-2.6421 2.2321,-5.1718 3.7727,-7.5232 0.7246,-0.2003 1.4494,-0.3687 2.1696,-0.5141 l 1.3805,0.9953 c 1.2098,-1.704 2.5889,-3.2822 4.1137,-4.7137 0.879,-0.9738 1.3455,-2.2487 1.296,-3.5575 -0.1045,-2.7594 -2.4262,-4.9117 -5.1856,-4.8072 z m 24.3243,52.9183 3.0642,-0.116 10.3368,9.5825 0.1202,3.1736 -9.4792,10.2253 -3.279,0.1242 -10.2254,-9.4793 -0.1201,-3.1735 9.5825,-10.3368 z"
         id="path5065"
         inkscape:connector-curvature="0" />
    </g>
  </g>
</svg>
